<svg xmlns="http://www.w3.org/2000/svg" width="512" height="512" viewBox="0 0 512 512">
  <rect width="512" height="512" rx="96" fill="#065f46"/>
  <!-- مشكاة: قنديلٌ داخل محراب مبسّط -->
  <path d="M256 96c-26 0-44 18-44 44 0 10 3 18 8 26-30 16-50 46-50 82v70c0 40 38 62 86 62s86-22 86-62v-70c0-36-20-66-50-82 5-8 8-16 8-26 0-26-18-44-44-44z" fill="none" stroke="#fcd34d" stroke-width="16" stroke-linejoin="round"/>
  <circle cx="256" cy="300" r="30" fill="#fcd34d"/>
  <path d="M256 340v70" stroke="#fcd34d" stroke-width="14" stroke-linecap="round"/>
</svg>
